<svg width="175" height="60" viewBox="0 0 175 60" fill="none" xmlns="http://www.w3.org/2000/svg">
<g clip-path="url(#clip0)">
<path d="M80.7078 6.72919V10.9481H70.6316V14.9069C71.5648 14.7916 72.504 14.7329 73.4443 14.7311C75.7435 14.6677 78.0052 15.324 79.9133 16.6085C80.7787 17.2348 81.4748 18.0666 81.9388 19.029C82.4028 19.9913 82.6201 21.054 82.5712 22.1212C82.5964 23.0892 82.4151 24.0514 82.0392 24.9438C81.6634 25.8362 81.1016 26.6382 80.3914 27.2964C78.1765 29.2371 74.5693 29.9192 71.0606 29.9192C69.2056 29.9375 67.3517 29.8247 65.5127 29.5816V6.72919H80.7078ZM70.6316 25.9042C71.2855 26.0025 71.9463 26.0472 72.6075 26.0378C73.8322 26.0624 75.0259 25.6512 75.9756 24.8776C76.3388 24.5321 76.6264 24.115 76.82 23.6526C77.0137 23.1902 77.1092 22.6927 77.1006 22.1915C77.1178 21.6939 77.0157 21.1994 76.8029 20.7492C76.5901 20.2991 76.2727 19.9064 75.8772 19.6039C74.8671 18.8993 73.6555 18.5415 72.4247 18.5843C71.8203 18.5949 71.217 18.6395 70.6176 18.7179L70.6316 25.9042Z" fill="white"/>
<path d="M91.1567 6.72918V15.6873H93.9131C94.8342 10.1395 98.575 6.32838 103.954 6.32838C110.423 6.32838 113.967 11.6091 113.967 17.9726C113.967 25.5315 109.748 30.0668 103.617 30.0668C97.9281 30.0668 94.3561 25.8479 93.7725 20.0539H91.1497V29.6871H85.9745V6.72918H91.1567ZM108.736 18.1413C108.736 13.9857 107.034 10.4067 103.813 10.4067C100.593 10.4067 98.8422 13.9224 98.8422 18.2328C98.8422 22.5431 100.649 25.9674 103.813 25.9674C106.978 25.9674 108.721 22.5993 108.721 18.1413H108.736Z" fill="white"/>
<path d="M117.328 7.03153C119.654 6.67632 122.006 6.51638 124.36 6.55339C127.559 6.55339 129.844 7.17216 131.391 8.39565C132.179 9.03331 132.81 9.84387 133.234 10.7645C133.658 11.6851 133.865 12.6911 133.838 13.7045C133.891 14.7102 133.73 15.7157 133.367 16.655C133.003 17.5942 132.445 18.4458 131.729 19.1539C129.957 20.7852 127.334 21.5727 124.268 21.5727C123.677 21.5868 123.085 21.5397 122.503 21.4321V29.6801H117.363L117.328 7.03153ZM122.468 17.4523C123.04 17.5601 123.623 17.6049 124.205 17.5859C126.961 17.5859 128.663 16.1795 128.663 13.8732C128.663 11.7637 127.2 10.5051 124.577 10.5051C123.87 10.4826 123.163 10.5392 122.468 10.6739V17.4523Z" fill="white"/>
<path d="M158.005 17.9656C158.005 25.5244 153.477 30.0598 146.755 30.0598C140.033 30.0598 135.962 24.9127 135.962 18.3453C135.962 11.4684 140.391 6.32135 147.128 6.32135C154.159 6.32838 158.005 11.602 158.005 17.9656ZM141.425 18.2398C141.425 22.7681 143.535 25.9745 147.008 25.9745C150.482 25.9745 152.521 22.6345 152.521 18.1765C152.521 14.0209 150.58 10.4418 147.008 10.4418C143.436 10.4418 141.425 13.7818 141.425 18.2398Z" fill="white"/>
<path d="M78.282 52.5325C78.1624 50.3316 78.0218 47.6878 78.0499 45.726H77.9796C77.4382 47.5753 76.7842 49.5371 75.9897 51.7169L73.1771 59.3672H71.6301L69.1058 51.8575C68.3605 49.6355 67.6995 47.5964 67.2776 45.726H67.2354C67.1862 47.6878 67.0737 50.3316 66.9261 52.7013L66.5112 59.4586H64.5705L65.6674 43.6869H68.262L70.9551 51.3301C71.6091 53.2708 72.1505 55.0076 72.5442 56.646H72.6146C73.0154 55.0498 73.5779 53.32 74.281 51.3301L77.0936 43.7009H79.6883L80.6727 59.4726H78.6828L78.282 52.5325Z" fill="white"/>
<path d="M91.9653 52.0684H85.8338V57.7499H92.6684V59.4586H83.8017V43.6869H92.3169V45.3955H85.8338V50.3809H91.9653V52.0684Z" fill="white"/>
<path d="M98.4414 45.4166H93.6459V43.6869H105.325V45.4166H100.509V59.4797H98.4414V45.4166Z" fill="white"/>
<path d="M107.716 54.5014L106.078 59.4234H103.968L109.326 43.6517H111.801L117.18 59.4234H115.008L113.32 54.5014H107.716ZM112.884 52.9122L111.344 48.3699C110.993 47.3362 110.754 46.401 110.522 45.494H110.479C110.24 46.4292 109.987 47.3855 109.678 48.3488L108.138 52.9122H112.884Z" fill="white"/>
<path d="M130.646 43.6869V59.4586H128.585V45.3955H123.368V50.1699C123.368 53.5872 123.227 57.4054 121.005 58.9031C120.283 59.3644 119.45 59.6219 118.594 59.6484L118.333 58.0101C118.953 57.8788 119.527 57.5879 120 57.1663C121.259 55.9287 121.406 52.863 121.406 50.3316V43.6869H130.646Z" fill="white"/>
<path d="M144.617 43.6869V59.4586H142.557V45.3955H137.34V50.1699C137.34 53.5872 137.199 57.4054 134.977 58.9031C134.255 59.3634 133.422 59.6208 132.565 59.6484L132.305 58.0101C132.923 57.8788 133.495 57.5879 133.965 57.1663C135.23 55.9287 135.371 52.863 135.371 50.3316V43.6869H144.617Z" fill="white"/>
<path d="M161.627 51.4145C161.627 56.8429 158.329 59.7188 154.3 59.7188C150.137 59.7188 147.212 56.4913 147.212 51.7169C147.212 46.7104 150.32 43.4337 154.539 43.4337C158.758 43.4337 161.627 46.7315 161.627 51.4145ZM149.385 51.6677C149.385 55.0358 151.213 58.0593 154.419 58.0593C157.626 58.0593 159.475 55.085 159.475 51.5059C159.475 48.3699 157.837 45.0932 154.44 45.0932C151.044 45.0932 149.385 48.2082 149.385 51.6677Z" fill="white"/>
<path d="M164.27 43.8978C165.498 43.6749 166.743 43.5666 167.99 43.5744C170.029 43.5744 171.337 43.9189 172.322 44.7205C172.753 45.0465 173.098 45.4735 173.326 45.9638C173.554 46.4542 173.658 46.9931 173.629 47.5331C173.604 48.3174 173.332 49.0737 172.853 49.6948C172.373 50.3158 171.71 50.7699 170.957 50.9926V51.0418C171.871 51.2273 172.693 51.7211 173.286 52.4406C173.878 53.1601 174.206 54.0614 174.213 54.9936C174.225 55.5852 174.112 56.1726 173.882 56.7178C173.651 57.2629 173.309 57.7535 172.877 58.1577C171.78 59.1633 170.001 59.6273 167.428 59.6273C166.372 59.6351 165.318 59.5741 164.27 59.4445V43.8978ZM166.303 50.3598H168.152C170.304 50.3598 171.569 49.2347 171.569 47.7159C171.569 45.8666 170.163 45.1424 168.11 45.1424C167.504 45.1266 166.898 45.1737 166.303 45.283V50.3598ZM166.303 57.9187C166.869 57.9936 167.44 58.0242 168.011 58.0101C170.121 58.0101 172.061 57.2366 172.061 54.9443C172.061 52.7927 170.212 51.8997 167.99 51.8997H166.303V57.9187Z" fill="white"/>
<path d="M12.72 6.53932L0 0V9.44334L12.72 16.0037H56.8147V6.53932H12.72Z" fill="white"/>
<path d="M12.72 35.8538L0 29.3074V38.7578L12.72 45.3112V45.2619H56.8147V35.7975H12.72V35.8538Z" fill="white"/>
<path d="M12.72 50.5356L0 43.9962V53.4396L12.72 60V59.8875H56.8147V50.4231H12.72V50.5356Z" fill="white"/>
<path d="M0 14.6256V24.076L12.72 30.6293H56.8147V21.1719H12.72L0 14.6256Z" fill="white"/>
</g>
<defs>
<clipPath id="clip0">
<rect width="174.213" height="60" fill="white"/>
</clipPath>
</defs>
</svg>
